<mxfile host="65bd71144e">
    <diagram id="Ji5eITUgTbLHHfy427Ze" name="Page-1">
        <mxGraphModel dx="500" dy="478" grid="1" gridSize="10" guides="1" tooltips="1" connect="1" arrows="1" fold="1" page="1" pageScale="1" pageWidth="827" pageHeight="1169" math="0" shadow="0">
            <root>
                <mxCell id="0"/>
                <mxCell id="1" parent="0"/>
                <mxCell id="15" style="edgeStyle=orthogonalEdgeStyle;html=1;entryX=0.5;entryY=0;entryDx=0;entryDy=0;endArrow=none;endFill=0;" parent="1" source="2" target="7" edge="1">
                    <mxGeometry relative="1" as="geometry">
                        <Array as="points">
                            <mxPoint x="140" y="220"/>
                            <mxPoint x="220" y="220"/>
                            <mxPoint x="220" y="10"/>
                            <mxPoint x="140" y="10"/>
                        </Array>
                    </mxGeometry>
                </mxCell>
                <mxCell id="43" style="edgeStyle=orthogonalEdgeStyle;shape=connector;rounded=1;html=1;entryX=0;entryY=0.5;entryDx=0;entryDy=0;labelBackgroundColor=default;fontFamily=Helvetica;fontSize=11;fontColor=default;endArrow=none;endFill=0;strokeColor=default;exitX=0.75;exitY=1;exitDx=0;exitDy=0;" parent="1" source="2" target="31" edge="1">
                    <mxGeometry relative="1" as="geometry"/>
                </mxCell>
                <mxCell id="55" style="edgeStyle=orthogonalEdgeStyle;shape=connector;rounded=1;html=1;entryX=0;entryY=0.5;entryDx=0;entryDy=0;labelBackgroundColor=default;fontFamily=Helvetica;fontSize=11;fontColor=default;endArrow=none;endFill=0;strokeColor=default;" parent="1" source="2" target="30" edge="1">
                    <mxGeometry relative="1" as="geometry"/>
                </mxCell>
                <mxCell id="2" value="Usuario" style="rounded=0;whiteSpace=wrap;html=1;" parent="1" vertex="1">
                    <mxGeometry x="80" y="240" width="120" height="40" as="geometry"/>
                </mxCell>
                <mxCell id="7" value="" style="swimlane;startSize=0;" parent="1" vertex="1">
                    <mxGeometry x="80" y="20" width="120" height="180" as="geometry"/>
                </mxCell>
                <mxCell id="8" value="Nombre usuario" style="text;html=1;strokeColor=none;fillColor=none;align=left;verticalAlign=middle;whiteSpace=wrap;rounded=0;" parent="7" vertex="1">
                    <mxGeometry y="20" width="120" height="20" as="geometry"/>
                </mxCell>
                <mxCell id="9" value="Nombre" style="text;html=1;strokeColor=none;fillColor=none;align=left;verticalAlign=middle;whiteSpace=wrap;rounded=0;" parent="7" vertex="1">
                    <mxGeometry y="40" width="120" height="20" as="geometry"/>
                </mxCell>
                <mxCell id="10" value="Apellidos" style="text;html=1;strokeColor=none;fillColor=none;align=left;verticalAlign=middle;whiteSpace=wrap;rounded=0;" parent="7" vertex="1">
                    <mxGeometry y="60" width="120" height="20" as="geometry"/>
                </mxCell>
                <mxCell id="11" value="Correo electrónico" style="text;html=1;strokeColor=none;fillColor=none;align=left;verticalAlign=middle;whiteSpace=wrap;rounded=0;" parent="7" vertex="1">
                    <mxGeometry y="80" width="120" height="20" as="geometry"/>
                </mxCell>
                <mxCell id="12" value="Contraseña" style="text;html=1;strokeColor=none;fillColor=none;align=left;verticalAlign=middle;whiteSpace=wrap;rounded=0;" parent="7" vertex="1">
                    <mxGeometry y="100" width="120" height="20" as="geometry"/>
                </mxCell>
                <mxCell id="47" value="Antigüedad" style="text;html=1;strokeColor=none;fillColor=none;align=left;verticalAlign=middle;whiteSpace=wrap;rounded=0;" parent="7" vertex="1">
                    <mxGeometry y="120" width="120" height="20" as="geometry"/>
                </mxCell>
                <mxCell id="83" value="Hilos abiertos" style="text;html=1;strokeColor=none;fillColor=none;align=left;verticalAlign=middle;whiteSpace=wrap;rounded=0;" vertex="1" parent="7">
                    <mxGeometry y="140" width="120" height="20" as="geometry"/>
                </mxCell>
                <mxCell id="84" value="Comentarios" style="text;html=1;strokeColor=none;fillColor=none;align=left;verticalAlign=middle;whiteSpace=wrap;rounded=0;" vertex="1" parent="7">
                    <mxGeometry y="160" width="120" height="20" as="geometry"/>
                </mxCell>
                <mxCell id="27" style="edgeStyle=orthogonalEdgeStyle;html=1;entryX=0.5;entryY=0;entryDx=0;entryDy=0;endArrow=none;endFill=0;" parent="1" source="16" target="17" edge="1">
                    <mxGeometry relative="1" as="geometry">
                        <Array as="points">
                            <mxPoint x="300" y="220"/>
                            <mxPoint x="380" y="220"/>
                            <mxPoint x="380" y="100"/>
                            <mxPoint x="300" y="100"/>
                        </Array>
                    </mxGeometry>
                </mxCell>
                <mxCell id="56" style="edgeStyle=orthogonalEdgeStyle;shape=connector;rounded=1;html=1;entryX=1;entryY=0.5;entryDx=0;entryDy=0;labelBackgroundColor=default;fontFamily=Helvetica;fontSize=11;fontColor=default;endArrow=none;endFill=0;strokeColor=default;" parent="1" source="16" target="30" edge="1">
                    <mxGeometry relative="1" as="geometry"/>
                </mxCell>
                <mxCell id="16" value="Hilo" style="rounded=0;whiteSpace=wrap;html=1;" parent="1" vertex="1">
                    <mxGeometry x="240" y="240" width="120" height="40" as="geometry"/>
                </mxCell>
                <mxCell id="17" value="" style="swimlane;startSize=0;" parent="1" vertex="1">
                    <mxGeometry x="240" y="120" width="120" height="80" as="geometry"/>
                </mxCell>
                <mxCell id="18" value="Título" style="text;html=1;strokeColor=none;fillColor=none;align=left;verticalAlign=middle;whiteSpace=wrap;rounded=0;" parent="17" vertex="1">
                    <mxGeometry y="20" width="120" height="20" as="geometry"/>
                </mxCell>
                <mxCell id="19" value="Contenido" style="text;html=1;strokeColor=none;fillColor=none;align=left;verticalAlign=middle;whiteSpace=wrap;rounded=0;" parent="17" vertex="1">
                    <mxGeometry y="40" width="120" height="20" as="geometry"/>
                </mxCell>
                <mxCell id="48" value="Antigüedad" style="text;html=1;strokeColor=none;fillColor=none;align=left;verticalAlign=middle;whiteSpace=wrap;rounded=0;" parent="17" vertex="1">
                    <mxGeometry y="60" width="120" height="20" as="geometry"/>
                </mxCell>
                <mxCell id="30" value="Añade" style="rhombus;whiteSpace=wrap;html=1;" parent="1" vertex="1">
                    <mxGeometry x="180" y="360" width="80" height="40" as="geometry"/>
                </mxCell>
                <mxCell id="44" style="edgeStyle=orthogonalEdgeStyle;shape=connector;rounded=1;html=1;entryX=0.25;entryY=1;entryDx=0;entryDy=0;labelBackgroundColor=default;fontFamily=Helvetica;fontSize=11;fontColor=default;endArrow=none;endFill=0;strokeColor=default;exitX=1;exitY=0.5;exitDx=0;exitDy=0;" parent="1" source="31" target="16" edge="1">
                    <mxGeometry relative="1" as="geometry"/>
                </mxCell>
                <mxCell id="31" value="Crear" style="rhombus;whiteSpace=wrap;html=1;" parent="1" vertex="1">
                    <mxGeometry x="180" y="300" width="80" height="40" as="geometry"/>
                </mxCell>
                <mxCell id="57" style="edgeStyle=orthogonalEdgeStyle;shape=connector;rounded=1;html=1;exitX=0.5;exitY=0;exitDx=0;exitDy=0;entryX=0.5;entryY=1;entryDx=0;entryDy=0;labelBackgroundColor=default;fontFamily=Helvetica;fontSize=11;fontColor=default;endArrow=none;endFill=0;strokeColor=default;" parent="1" source="49" target="30" edge="1">
                    <mxGeometry relative="1" as="geometry"/>
                </mxCell>
                <mxCell id="49" value="" style="swimlane;startSize=0;" parent="1" vertex="1">
                    <mxGeometry x="160" y="440" width="120" height="60" as="geometry"/>
                </mxCell>
                <mxCell id="51" value="Contenido" style="text;html=1;strokeColor=none;fillColor=none;align=left;verticalAlign=middle;whiteSpace=wrap;rounded=0;" parent="49" vertex="1">
                    <mxGeometry y="20" width="120" height="20" as="geometry"/>
                </mxCell>
                <mxCell id="52" value="Antigüedad" style="text;html=1;strokeColor=none;fillColor=none;align=left;verticalAlign=middle;whiteSpace=wrap;rounded=0;" parent="49" vertex="1">
                    <mxGeometry y="40" width="120" height="20" as="geometry"/>
                </mxCell>
                <mxCell id="70" value="Usuario" style="swimlane;fontFamily=Helvetica;fontSize=11;fontColor=default;startSize=20;" parent="1" vertex="1">
                    <mxGeometry x="440" y="40" width="180" height="180" as="geometry"/>
                </mxCell>
                <mxCell id="72" value="Nombre usuario" style="text;html=1;strokeColor=none;fillColor=none;align=left;verticalAlign=middle;whiteSpace=wrap;rounded=0;" parent="70" vertex="1">
                    <mxGeometry x="60" y="20" width="120" height="20" as="geometry"/>
                </mxCell>
                <mxCell id="75" value="Nombre" style="text;html=1;strokeColor=none;fillColor=none;align=left;verticalAlign=middle;whiteSpace=wrap;rounded=0;" parent="70" vertex="1">
                    <mxGeometry x="60" y="40" width="120" height="20" as="geometry"/>
                </mxCell>
                <mxCell id="77" value="Correo electrónico" style="text;html=1;strokeColor=none;fillColor=none;align=left;verticalAlign=middle;whiteSpace=wrap;rounded=0;" parent="70" vertex="1">
                    <mxGeometry x="60" y="80" width="120" height="20" as="geometry"/>
                </mxCell>
                <mxCell id="78" value="Contraseña" style="text;html=1;strokeColor=none;fillColor=none;align=left;verticalAlign=middle;whiteSpace=wrap;rounded=0;" parent="70" vertex="1">
                    <mxGeometry x="60" y="100" width="120" height="20" as="geometry"/>
                </mxCell>
                <mxCell id="79" value="Antigüedad" style="text;html=1;strokeColor=none;fillColor=none;align=left;verticalAlign=middle;whiteSpace=wrap;rounded=0;" parent="70" vertex="1">
                    <mxGeometry x="60" y="120" width="120" height="20" as="geometry"/>
                </mxCell>
                <mxCell id="80" value="varchar" style="text;html=1;strokeColor=none;fillColor=none;align=center;verticalAlign=middle;whiteSpace=wrap;rounded=0;fontFamily=Helvetica;fontSize=11;fontColor=default;" parent="70" vertex="1">
                    <mxGeometry x="10" y="20" width="40" height="20" as="geometry"/>
                </mxCell>
                <mxCell id="81" value="varchar" style="text;html=1;strokeColor=none;fillColor=none;align=center;verticalAlign=middle;whiteSpace=wrap;rounded=0;fontFamily=Helvetica;fontSize=11;fontColor=default;" parent="70" vertex="1">
                    <mxGeometry x="10" y="40" width="40" height="20" as="geometry"/>
                </mxCell>
                <mxCell id="85" value="Hilos abiertos" style="text;html=1;strokeColor=none;fillColor=none;align=left;verticalAlign=middle;whiteSpace=wrap;rounded=0;" vertex="1" parent="70">
                    <mxGeometry x="60" y="140" width="120" height="20" as="geometry"/>
                </mxCell>
                <mxCell id="86" value="Comentarios" style="text;html=1;strokeColor=none;fillColor=none;align=left;verticalAlign=middle;whiteSpace=wrap;rounded=0;" vertex="1" parent="70">
                    <mxGeometry x="60" y="160" width="120" height="20" as="geometry"/>
                </mxCell>
                <mxCell id="87" value="varchar" style="text;html=1;strokeColor=none;fillColor=none;align=center;verticalAlign=middle;whiteSpace=wrap;rounded=0;fontFamily=Helvetica;fontSize=11;fontColor=default;" vertex="1" parent="70">
                    <mxGeometry x="10" y="60" width="40" height="20" as="geometry"/>
                </mxCell>
                <mxCell id="88" value="varchar" style="text;html=1;strokeColor=none;fillColor=none;align=center;verticalAlign=middle;whiteSpace=wrap;rounded=0;fontFamily=Helvetica;fontSize=11;fontColor=default;" vertex="1" parent="70">
                    <mxGeometry x="10" y="80" width="40" height="20" as="geometry"/>
                </mxCell>
                <mxCell id="89" value="varchar" style="text;html=1;strokeColor=none;fillColor=none;align=center;verticalAlign=middle;whiteSpace=wrap;rounded=0;fontFamily=Helvetica;fontSize=11;fontColor=default;" vertex="1" parent="70">
                    <mxGeometry x="10" y="100" width="40" height="20" as="geometry"/>
                </mxCell>
                <mxCell id="90" value="timestamp" style="text;html=1;strokeColor=none;fillColor=none;align=center;verticalAlign=middle;whiteSpace=wrap;rounded=0;fontFamily=Helvetica;fontSize=11;fontColor=default;" vertex="1" parent="70">
                    <mxGeometry x="10" y="120" width="40" height="20" as="geometry"/>
                </mxCell>
                <mxCell id="91" value="int" style="text;html=1;strokeColor=none;fillColor=none;align=center;verticalAlign=middle;whiteSpace=wrap;rounded=0;fontFamily=Helvetica;fontSize=11;fontColor=default;" vertex="1" parent="70">
                    <mxGeometry x="10" y="140" width="40" height="20" as="geometry"/>
                </mxCell>
                <mxCell id="92" value="int" style="text;html=1;strokeColor=none;fillColor=none;align=center;verticalAlign=middle;whiteSpace=wrap;rounded=0;fontFamily=Helvetica;fontSize=11;fontColor=default;" vertex="1" parent="70">
                    <mxGeometry x="10" y="160" width="40" height="20" as="geometry"/>
                </mxCell>
                <mxCell id="76" value="Apellidos" style="text;html=1;strokeColor=none;fillColor=none;align=left;verticalAlign=middle;whiteSpace=wrap;rounded=0;" parent="70" vertex="1">
                    <mxGeometry x="60" y="60" width="120" height="20" as="geometry"/>
                </mxCell>
            </root>
        </mxGraphModel>
    </diagram>
</mxfile>